Coordinates
version=1
nRows=6
nColumns=63
inDegrees=yes

Units are S.I. units (second, meters, Newtons, ...)
If the header above contains a line with 'inDegrees', this indicates whether rotational values are in degrees (yes) or radians (no).

endheader
time	pelvis_tilt	pelvis_list	pelvis_rotation	pelvis_tx	pelvis_ty	pelvis_tz	hip_flexion_r	hip_adduction_r	hip_rotation_r	knee_angle_r	knee_angle_r_beta	ankle_angle_r	subtalar_angle_r	mtp_angle_r	hip_flexion_l	hip_adduction_l	hip_rotation_l	knee_angle_l	knee_angle_l_beta	ankle_angle_l	subtalar_angle_l	mtp_angle_l	L5_S1_Flex_Ext	L5_S1_Lat_Bending	L5_S1_axial_rotation	L4_L5_Flex_Ext	L4_L5_Lat_Bending	L4_L5_axial_rotation	L3_L4_Flex_Ext	L3_L4_Lat_Bending	L3_L4_axial_rotation	L2_L3_Flex_Ext	L2_L3_Lat_Bending	L2_L3_axial_rotation	L1_L2_Flex_Ext	L1_L2_Lat_Bending	L1_L2_axial_rotation	L1_T12_Flex_Ext	L1_T12_Lat_Bending	L1_T12_axial_rotation	Abs_r3	Abs_r2	Abs_r1	Abs_t1	Abs_t2	neck_flexion	neck_bending	neck_rotation	arm_flex_r	arm_add_r	arm_rot_r	elbow_flex_r	pro_sup_r	wrist_flex_r	wrist_dev_r	arm_flex_l	arm_add_l	arm_rot_l	elbow_flex_l	pro_sup_l	wrist_flex_l	wrist_dev_l
      0.85000000	    -39.03555853	     10.83016776	    -73.03755263	     -0.10377967	      0.95492154	     -0.96695064	     29.81326040	    -21.78492253	    -29.07498385	     32.19518446	      0.56191197	     -1.62277071	     18.03894715	      0.00000000	     43.38998104	    -29.44219651	     37.74113651	     49.29475387	      0.86035576	     16.55125167	    -18.75854105	      0.00000000	     -0.01501036	     -1.06661256	     -0.51065495	     -0.02787575	     -1.41859470	     -0.54257088	     -0.02466053	     -2.59336177	     -0.54257088	     -0.01715534	     -2.59336177	     -0.44682308	     -0.01393862	     -2.17503633	     -0.41490715	     -0.00857692	     -1.65218285	     -0.38299121	     -0.10721753	    -12.06573456	     -2.84010963	      0.00000000	      0.00000000	    -12.18835520	     12.70506558	     -3.29073316	    -29.64058645	    -47.81980756	    -97.33304845	    112.29473290	     89.99559364	      0.00000000	      0.00000000	     10.31110565	    -61.02911944	      7.28450231	     34.30282753	     89.99559364	      0.00000000	      0.00000000
      0.86666667	    -39.19023216	     11.01090301	    -71.97990174	     -0.10182063	      0.95643558	     -0.95850306	     30.20950700	    -21.17379966	    -28.94028299	     32.99335383	      0.57584266	     -1.96878478	     18.26632785	      0.00000000	     42.95442703	    -29.39942118	     38.17660846	     47.93435472	      0.83661231	     16.80893651	    -18.59347832	      0.00000000	     -0.01599283	     -1.05052697	     -0.59385325	     -0.02970029	     -1.39720087	     -0.63096907	     -0.02627463	     -2.55425128	     -0.63096907	     -0.01827821	     -2.55425128	     -0.51962159	     -0.01485095	     -2.14223460	     -0.48250576	     -0.00913831	     -1.62726628	     -0.44538993	     -0.11423522	    -11.88377122	     -3.30283360	      0.00000000	      0.00000000	    -12.28147142	     12.79127259	     -3.41310657	    -29.35278715	    -47.69838481	    -97.14120474	    113.93255994	     89.99559364	      0.00000000	      0.00000000	     10.26983116	    -61.00688004	      7.23776261	     34.43826342	     89.99559364	      0.00000000	      0.00000000
      0.88333333	    -39.33854078	     11.39562472	    -70.83490588	     -0.10001835	      0.95732857	     -0.95307980	     31.07503713	    -20.62592115	    -29.47552696	     33.92566735	      0.59211460	     -2.30386070	     18.54399667	      0.00000000	     43.08251176	    -29.13208925	     38.67467316	     46.74089699	      0.81578255	     16.91968549	    -18.33072674	      0.00000000	     -0.01328073	     -1.01897943	     -0.93001253	     -0.02466364	     -1.35524264	     -0.98813831	     -0.02181890	     -2.47754658	     -0.98813831	     -0.01517854	     -2.47754658	     -0.81376097	     -0.01233248	     -2.07790285	     -0.75563518	     -0.00758861	     -1.57839913	     -0.69750940	     -0.09486290	    -11.52689908	     -5.17245070	      0.00000000	      0.00000000	    -13.20192642	     12.74846031	     -2.86937858	    -26.68410089	    -48.64831046	    -94.24897388	    115.30646634	     89.99559364	      0.00000000	      0.00000000	      6.61704877	    -60.68161032	      1.18394197	     36.08270625	     89.99559364	      0.00000000	      0.00000000
      0.90000000	    -39.70416410	     11.90306612	    -69.68018896	     -0.09912431	      0.95758857	     -0.95081891	     32.48648576	    -19.61682581	    -29.80389444	     34.80221755	      0.60741328	     -1.94346820	     18.62522426	      0.00000000	     43.91253286	    -28.97075245	     39.11762224	     45.83520633	      0.79997526	     16.94227923	    -17.82678179	      0.00000000	     -0.01111284	     -0.94783804	     -1.26417924	     -0.02063765	     -1.26062459	     -1.34319045	     -0.01825728	     -2.30457340	     -1.34319045	     -0.01270086	     -2.30457340	     -1.10615684	     -0.01031938	     -1.93283133	     -1.02714564	     -0.00634988	     -1.46820112	     -0.94813443	     -0.07937789	    -10.72213344	     -7.03098570	      0.00000000	      0.00000000	    -13.19425119	     12.06523569	     -1.64017095	    -23.90530001	    -49.87072563	    -91.39598723	    116.40834526	     89.99559364	      0.00000000	      0.00000000	      4.18414592	    -60.24326369	     -3.15587345	     37.76025623	     89.99559364	      0.00000000	      0.00000000
      0.91666667	    -40.07784733	     12.50837981	    -68.37674868	     -0.09872808	      0.95747509	     -0.95059589	     34.15939693	    -18.45675264	    -30.41988720	     35.48781677	      0.61937925	     -0.33390498	     18.64157595	      0.00000000	     45.15174408	    -28.67602802	     39.38672173	     45.04579227	      0.78619739	     16.84486824	    -17.05757743	      0.00000000	     -0.00844105	     -0.87286556	     -1.54265648	     -0.01567587	     -1.16091120	     -1.63907251	     -0.01386780	     -2.12228533	     -1.63907251	     -0.00964727	     -2.12228533	     -1.34982442	     -0.00783836	     -1.77994746	     -1.25340839	     -0.00482321	     -1.35206876	     -1.15699236	     -0.06029356	     -9.87402982	     -8.57979253	      0.00000000	      0.00000000	    -13.21983605	     11.46548277	     -1.08965627	    -21.69546867	    -50.86295959	    -89.31866458	    117.37916674	     89.99559364	      0.00000000	      0.00000000	      3.78199905	    -59.83360067	     -5.18316873	     39.33674900	     89.99559364	      0.00000000	      0.00000000
      0.93333333	    -40.40505699	     13.12573267	    -67.13255240	     -0.09839375	      0.95727490	     -0.95092929	     35.90829363	    -17.08227122	    -31.42076143	     35.75190276	      0.62398842	      2.31466396	     18.58882619	      0.00000000	     46.32532370	    -28.30960801	     39.50771098	     44.32138848	      0.77355416	     16.61864521	    -16.37678913	      0.00000000	     -0.00680458	     -0.79867634	     -1.70358842	     -0.01263678	     -1.06223953	     -1.81006270	     -0.01117924	     -1.94190165	     -1.81006270	     -0.00777695	     -1.94190165	     -1.49063987	     -0.00631873	     -1.62866079	     -1.38416559	     -0.00388814	     -1.23714965	     -1.27769132	     -0.04860443	     -9.03478646	     -9.47484773	      0.00000000	      0.00000000	    -13.23717149	     11.34466953	     -1.21007669	    -20.64121661	    -51.49229389	    -88.53786415	    118.38405424	     89.99559364	      0.00000000	      0.00000000	      5.27208429	    -59.42864975	     -5.04032442	     40.62659931	     89.99559364	      0.00000000	      0.00000000
